<?xml version="1.0" standalone="no"?>
<!DOCTYPE svg PUBLIC "-//W3C//DTD SVG 20010904//EN"
 "http://www.w3.org/TR/2001/REC-SVG-20010904/DTD/svg10.dtd">
<svg version="1.0" xmlns="http://www.w3.org/2000/svg"
 width="160.000000pt" height="148.000000pt" viewBox="0 0 160.000000 148.000000"
 preserveAspectRatio="xMidYMid meet">

<g transform="translate(0.000000,148.000000) scale(0.100000,-0.100000)"
fill="#000000" stroke="none">
<path d="M0 740 l0 -740 318 0 c307 0 316 1 285 18 -17 9 -54 36 -81 58 -38
31 -68 46 -120 59 -84 20 -112 45 -143 130 -16 44 -36 74 -76 112 -77 75 -83
90 -76 197 4 78 2 99 -16 144 -32 80 -28 118 20 189 32 49 43 77 55 144 17
100 30 122 93 153 66 34 107 70 137 121 35 61 56 72 155 77 73 4 96 9 159 41
l74 37 -392 0 -392 0 0 -740z"/>
<path d="M890 1443 c65 -32 85 -38 162 -41 l88 -4 32 -39 c18 -22 48 -57 67
-80 19 -22 61 -54 93 -70 32 -16 64 -39 73 -52 8 -12 19 -55 25 -95 11 -77 24
-110 71 -175 35 -48 37 -85 8 -164 -16 -42 -21 -74 -19 -122 6 -144 8 -137
-64 -209 -49 -49 -71 -79 -86 -121 -11 -31 -24 -63 -28 -71 -15 -26 -71 -58
-115 -65 -55 -10 -90 -28 -141 -76 -24 -21 -53 -43 -67 -48 -16 -7 78 -10 294
-10 l317 -1 0 740 0 740 -392 0 -392 0 74 -37z"/>
<path d="M772 1268 c-7 -7 -12 -33 -12 -59 0 -41 -4 -50 -29 -68 -39 -28 -57
-81 -42 -123 11 -30 7 -43 -49 -158 -33 -69 -65 -127 -71 -129 -6 -2 -38 25
-71 59 -64 68 -67 69 -127 19 l-24 -19 28 -41 c16 -22 51 -59 79 -81 28 -23
54 -45 59 -48 4 -4 -15 -53 -43 -111 -38 -79 -50 -115 -50 -151 0 -26 5 -50
10 -53 23 -14 86 59 136 159 40 80 55 100 70 98 10 -1 52 -8 92 -14 69 -11
187 -2 233 16 12 5 27 -16 67 -97 38 -78 61 -112 91 -136 49 -39 56 -30 49 52
-4 39 -28 98 -97 242 -186 382 -171 344 -164 408 6 57 6 58 -36 97 -35 33 -41
45 -41 79 0 22 -3 46 -6 55 -7 19 -35 21 -52 4z m70 -175 c26 -23 24 -78 -4
-97 -33 -23 -64 -19 -87 10 -26 33 -27 58 -1 84 24 24 67 26 92 3z m21 -285
c41 -87 55 -124 47 -132 -14 -14 -216 -15 -228 -1 -9 10 103 255 117 255 3 0
32 -55 64 -122z"/>
<path d="M710 15 c-43 -12 -38 -13 85 -13 126 -1 129 0 85 14 -54 17 -110 16
-170 -1z"/>
</g>
</svg>
